<?xml version="1.0" encoding="UTF-8"?>
<svg id="Layer_2" xmlns="http://www.w3.org/2000/svg" viewBox="0 0 123.02 165.8">
  <defs>
    <style>
      .cls-1 {
        fill: #85922c;
      }

      .cls-2 {
        fill: #a4c05b;
      }

      .cls-3 {
        fill: #656b16;
      }
    </style>
  </defs>
  <g id="MARCA">
    <g>
      <path class="cls-2" d="M63.67,121.46s14.15,2.91,26.57-4.77c-2.21-4.15-4.92-8.03-7.76-11.95-4.49-6.19-8.16-12.92-10.92-20.01-.74-1.92-1.43-3.88-2.06-5.87-20.17,19.26-5.83,42.6-5.83,42.6Z"/>
      <path class="cls-2" d="M92.28,114.13c.16.29.3.57.45.86,10.06-7.61,18.18-23.14,15.29-54.32-17.12,4.14-28.56,9.81-36.08,16.03,1.64,5.61,3.79,11.07,6.57,16.27,3.99,7.46,9.73,13.76,13.76,21.17Z"/>
      <path class="cls-1" d="M30.8,117.28c-3.04,6.3-5.3,13.04-5.57,20.04-.23,5.95.55,11.94,5.63,15.8,4.2,3.19,9.73,4.49,14.9,5.2,4.28.58,8.65.73,12.98.67,1.51-8.37,2.88-32.28-27.94-41.71Z"/>
      <path class="cls-1" d="M54.21,161.79c-10.07-.26-23.72-1.67-29.39-11.1-3.62-6.02-2.93-14.38-1.53-20.93.98-4.6,2.65-9.02,4.68-13.28-7.47-1.95-16.66-3.09-27.97-3.08,11.22,70.73,58.07,48.54,58.07,48.54,0,0,.01-.04.03-.1-1.3,0-2.6,0-3.89-.04Z"/>
      <path class="cls-1" d="M66.8,68.25c-1.44-7.63-1.84-15.46-.67-22.97.27-1.71.63-3.4,1.13-5.05.32-1.05.65-2.47,1.42-3.3.64-.69,1.33-1.06,1.59-2.04.26-.96.08-2.08-.57-2.86-.5-.6-1.15-.78-1.9-.84-1.44-.11-2.93,0-4.37,0h-12.05c-.29,0-.61-.03-.9,0-2.09.24-2.87,2.65-1.96,4.35.52.97,1.43,1.47,1.83,2.55.16.44.3.88.43,1.33,2.68,9.04,2.14,18.98.63,28.23,4.55,2.96,8.31,4.3,8.31,4.3,0,0,3.11-1.18,7.06-3.69Z"/>
      <path class="cls-1" d="M48.76,43.35c-.27-1.38-.61-2.75-1.06-4.09-.28-.83-.87-1.08-1.39-1.82-.88-1.26-1.2-2.8-.99-4.3.39-2.72,2.51-4.7,5.32-4.8,1.43-.05,2.86,0,4.29,0,4.17,0,8.35-.05,12.52,0,2.04.02,3.84.73,4.95,2.51.88,1.41,1.11,3.19.68,4.79-.21.78-.58,1.5-1.09,2.13-.34.42-.89.71-1.17,1.09-.65.86-.87,2.5-1.13,3.51-.5,1.97-.84,3.97-1.03,5.99-.58,6-.15,12.08.88,18.02,12.29-9.08,27.47-29.84-10.49-66.37-36.23,36.18-22.51,56.54-10.27,65.78.32-2.26.56-4.53.71-6.8.35-5.2.27-10.5-.74-15.63Z"/>
      <path class="cls-3" d="M48.47,112.17s13.14-16.49.56-33.4c-1.37,5.01-3.13,9.92-5.27,14.69-2.57,5.72-5.89,11.01-9,16.43,7.16,2.83,13.72,2.27,13.72,2.27Z"/>
      <path class="cls-3" d="M44.37,84.12c.92-2.65,1.71-5.35,2.4-8.07-5.37-5.86-14.08-11.67-27.76-16.75-6.88,31.36,2.99,44.2,13.11,49.41.26-.44.51-.88.77-1.31,4.47-7.51,8.62-15.01,11.48-23.27Z"/>
      <path class="cls-3" d="M96.68,124.72c1.23,4.19,1.92,8.53,1.95,12.94-.01,1.71-.04,3.47-.21,5.18-.56,5.58-3.93,10.01-8.79,12.87-4.25,2.51-9.18,3.85-14.03,4.71-2.59.45-5.2.78-7.83,1.01,50.32,20.16,55.25-35.99,55.25-35.99-10.64-1.9-19.29-1.93-26.34-.72Z"/>
      <path class="cls-3" d="M93.85,125.29c-24.17,5.64-27.42,26.8-27.84,33.41,5.31-.35,10.63-1.08,15.71-2.66,3.48-1.09,6.97-2.65,9.65-5.14,4.06-3.78,4.31-8.13,4.35-13.24-.03-4.02-.59-7.99-1.71-11.86-.05-.17-.11-.34-.16-.51Z"/>
    </g>
  </g>
</svg>