<?xml version="1.0" encoding="UTF-8"?>
<svg id="Layer_2" xmlns="http://www.w3.org/2000/svg" viewBox="0 0 424.8 165.8">
  <defs>
    <style>
      .cls-1 {
        fill: #91874c;
      }

      .cls-2 {
        fill: #85922c;
      }

      .cls-3 {
        fill: #a4c05b;
      }

      .cls-4 {
        fill: #656b16;
      }
    </style>
  </defs>
  <g id="MARCA">
    <g>
      <g>
        <g>
          <path class="cls-2" d="M188.85,48.65c.26,0,.47.04.65.13,2.15.09,3.53.99,4.14,2.72.08.35.17.6.26.78.26,2.16-.65,4.87-2.72,8.15-2.59,3.71-7.16,8.67-13.71,14.88-9.92,9.23-16.64,15.83-20.18,19.79-4.48,5.26-7.5,9.96-9.05,14.1-.52,1.9-.73,3.19-.65,3.88.34,1.12,1.42,1.73,3.23,1.81,1.98-.08,5-.95,9.05-2.59,2.33-1.04,8.45-4.27,18.37-9.7,1.98-1.03,3.71-1.94,5.17-2.72,6.73-3.1,11.99-4.66,15.78-4.66,2.24.17,3.66.56,4.27,1.16.6.69.52,1.29-.26,1.81-.17.09-.3.13-.39.13-.43.09-1.03,0-1.81-.26-.69-.08-1.16-.13-1.42-.13-2.59-.43-5.61-.04-9.05,1.16-3.19,1.21-7.76,3.45-13.71,6.73-1.29.78-3.28,1.94-5.95,3.49-6.12,3.62-10.82,6.12-14.1,7.5-4.05,1.38-7.03,1.73-8.93,1.03-2.16-.78-3.41-2.2-3.75-4.27-.17-2.93.82-6.42,2.98-10.48,3.28-5.6,8.88-12.29,16.82-20.05,1.72-1.64,4.31-4.09,7.76-7.37,6.47-5.86,11.08-10.43,13.84-13.71,2.67-3.45,4.27-5.95,4.79-7.5.43-1.38.39-2.33-.13-2.85-1.12-.78-2.76-.99-4.92-.65-3.88.78-9.96,3.1-18.24,6.98-1.38.6-2.5,1.12-3.36,1.55-.69.26-1.73.73-3.1,1.42-2.85,1.29-5,2.03-6.47,2.2-2.16.26-3.67-.34-4.53-1.81-1.03-2.33-.78-5.13.78-8.41.26-.95.82-1.42,1.68-1.42.26,0,.47.04.65.13.6.6.73,1.64.39,3.1-.09.26-.22.69-.39,1.29-.35,1.73-.39,2.98-.13,3.75.34.78,1.25,1.03,2.72.78,2.59-.69,7.8-2.8,15.65-6.34,1.21-.52,2.24-.99,3.1-1.42,6.55-2.5,11.3-3.84,14.23-4.01.26-.08.47-.13.65-.13Z"/>
          <path class="cls-2" d="M224.64,72.33h.3c.98.3,1.23,1.18.74,2.66-1.38,6.6-1.97,12.27-1.77,17,0,.59.2.89.59.89.3-.69.69-1.72,1.18-3.1.89-2.37,1.63-4.09,2.22-5.17,1.48-2.17,2.81-3.4,3.99-3.7,1.67-.39,2.96.3,3.84,2.07.2.59.3,1.09.3,1.48-.2.99-.79,1.28-1.77.89-.3-.1-.54-.3-.74-.59-.1-.1-.25-.25-.44-.44-.59-.69-1.09-.98-1.48-.89-.79.49-1.63,1.68-2.51,3.55-1.58,3.45-2.86,7.34-3.84,11.68-.59,1.68-.89,2.56-.89,2.66-.3.2-.59.3-.89.3-1.28.2-2.17-.59-2.66-2.37-.69-2.66-.99-6.5-.89-11.53-.1.2-.25.4-.44.59-.3.49-.49.84-.59,1.03-1.48,2.66-3.16,5.03-5.03,7.1-2.56,2.37-4.93,3.5-7.1,3.4-2.07-.1-3.45-1.38-4.14-3.84-.1-.39-.2-.69-.3-.89-.49-4.14.24-8.08,2.22-11.83,1.28-2.17,2.71-3.15,4.29-2.96,1.38.4,1.97,1.48,1.77,3.25-.79,3.55-2.22,6.7-4.29,9.46-.1,1.38.3,2.46,1.18,3.25.98.2,2.17-.15,3.55-1.04,1.67-1.18,3.45-2.96,5.32-5.32.69-.98,1.92-3.15,3.7-6.5.1-.59.24-1.48.44-2.66.39-2.37.84-4.09,1.33-5.17.89-1.87,1.67-2.96,2.37-3.25h.44ZM209.41,83.56v-.74c-1.77,2.07-2.86,4.88-3.25,8.43,1.97-2.46,3.05-5.03,3.25-7.69Z"/>
          <path class="cls-2" d="M243.56,82.38c.69,0,.94.44.74,1.33-.1.3-.15.49-.15.59.98,0,1.82.3,2.51.89,1.97,2.17,2.27,5.03.89,8.57-1.77,3.45-3.7,5.57-5.77,6.36-1.68.69-3.1.25-4.29-1.33-.2-.3-.35-.59-.44-.89-.79-3.45-.05-7.24,2.22-11.38,1.38-2.37,2.66-3.7,3.84-3.99.2-.1.34-.15.44-.15ZM243.86,85.93c-.1-.1-.2-.2-.3-.3v-.15c-1.18,2.37-1.97,4.04-2.37,5.03-.79,2.96-1.09,4.98-.89,6.06-.1.49.1.79.59.89.2,0,.34-.05.44-.15,2.46-1.58,3.94-3.84,4.44-6.8.3-1.18-.35-2.71-1.92-4.58Z"/>
          <path class="cls-2" d="M324.65,32.87c4.14,0,7.67,1.16,10.61,3.49,3.54,3.1,5.78,7.85,6.73,14.23,1.04,8.45.52,17.12-1.55,26-1.81,7.16-4.14,13.41-6.98,18.76-2.85,5.26-5.99,9.14-9.44,11.64-3.36,2.33-6.51,2.85-9.44,1.55-2.59-1.38-4.36-4.14-5.3-8.28-.86-4.83-.95-12.16-.26-21.99-7.76,10.09-13.37,17.2-16.82,21.34-5.87,6.73-10.69,11.3-14.49,13.71-2.59,1.55-4.92,1.86-6.98.91-1.81-1.21-2.76-3.28-2.85-6.21.08-4.74,1.38-10.35,3.88-16.82,4.74-11.64,10.87-21.3,18.37-28.97,3.45-3.45,6.47-5.35,9.05-5.69,1.64-.26,2.89.17,3.75,1.29.86,1.64.99,3.88.39,6.73-1.12,3.88-2.42,6.86-3.88,8.93-.26.6-.69.78-1.29.52-.17-.17-.3-.34-.39-.52.26-.43.6-1.12,1.03-2.07.86-1.47,1.42-2.59,1.68-3.36,1.12-3.36,1.68-5.43,1.68-6.21-.09-.6-.17-1.16-.26-1.68-.26-.86-.91-1.16-1.94-.91-1.9.86-4.05,2.42-6.47,4.66-4.74,4.74-9.05,10.52-12.94,17.33-4.48,8.11-7.42,15.52-8.8,22.25-.35,3.36-.35,5.56,0,6.6.34.86,1.08,1.21,2.2,1.04,2.5-.78,5.56-2.8,9.18-6.08,6.12-5.6,14.1-14.83,23.93-27.68,1.29-1.64,2.11-2.72,2.46-3.23.43-.95,1.16-1.21,2.2-.78.43.09.73.35.91.78.08.6-.04,3.19-.39,7.76-.35,5.87-.39,10.44-.13,13.71.69,4.4,1.64,7.33,2.85,8.8,1.03,1.29,2.46,1.64,4.27,1.03,2.59-.95,5.35-3.36,8.28-7.24,7.16-10.26,11.38-21.95,12.68-35.05.6-7.67.26-13.62-1.04-17.85-1.47-4.31-3.8-7.33-6.98-9.05-4.31-2.24-8.19-2.46-11.64-.65-1.64,1.12-2.5,2.16-2.59,3.1,0,.69-.22,1.12-.65,1.29-1.12-.34-1.47-1.25-1.03-2.72.08-.26.21-.47.39-.65,1.72-2.24,4.4-3.49,8.02-3.75Z"/>
          <path class="cls-2" d="M354.07,81.79c2.07,0,3.55.89,4.43,2.66.49,0,.94.2,1.33.59.39.99.15,2.76-.74,5.32-.2.69-.3,1.18-.3,1.48-.4,1.58.05,2.61,1.33,3.1,1.77.1,3.79-.74,6.06-2.51.49-.39,1.23-1.03,2.22-1.92.89-.79,1.53-1.38,1.92-1.77.79-.59,1.33-.59,1.63,0,0,.2-.05.4-.15.59-3.75,3.94-6.36,6.46-7.83,7.54-2.56,1.87-4.78,2.27-6.65,1.18-1.97-1.18-2.81-3.3-2.51-6.36-3.65,5.23-6.31,8.62-7.98,10.2-.49.4-.94.74-1.33,1.04-2.37,1.48-4.14,2.02-5.32,1.63-1.38-.79-2.02-2.37-1.92-4.73.69-4.34,3.15-8.77,7.39-13.3,3.05-3.05,5.86-4.63,8.43-4.73ZM354.96,85.48c-.3.1-.49.15-.59.15-2.07.59-4.14,1.92-6.21,3.99-3.16,3.35-5.13,6.7-5.91,10.05-.2.79,0,1.23.59,1.33,2.07-.79,4.63-2.91,7.69-6.36.3-.49.84-1.18,1.63-2.07,1.87-2.27,3.1-4.04,3.7-5.32.49-.59.39-1.08-.3-1.48-.3-.1-.49-.2-.59-.3Z"/>
          <path class="cls-2" d="M394.43,50.45c.79.1,1.33.49,1.63,1.18.39,3.25-.1,8.33-1.48,15.23,3.84-.39,7.04-.59,9.61-.59.3.1.69.15,1.18.15,1.08,0,1.82.15,2.22.44.59.4.59.89,0,1.48-.2.1-.4.2-.59.3-1.09.1-2.76.2-5.03.3-3.65.2-6.36.44-8.13.74-.89,2.86-1.58,4.93-2.07,6.21-.49,1.09-.74,3.25-.74,6.5-.2,6.21.1,12.62.89,19.22.1,1.18.3,2.86.59,5.03.3,1.97.49,3.45.59,4.44.39,1.18.05,1.97-1.03,2.37-.2.1-.35.15-.44.15-1.28,0-2.12-.89-2.51-2.66-1.38-8.67-2.12-17-2.22-24.98-.49.79-1.73,2.66-3.7,5.62-2.37,2.86-4.73,5.91-7.1,9.17.59,4.44.3,8.08-.89,10.94-1.09,2.37-2.37,3.7-3.84,3.99-1.48.3-2.51-.34-3.1-1.92-.1-.3-.2-.59-.3-.89-.2-2.86,1.13-6.75,3.99-11.68,0-.59-.2-1.63-.59-3.1-.2-.89-.54-2.22-1.04-3.99-1.09-3.65-1.63-6.41-1.63-8.28-.2-3.35.74-5.86,2.81-7.54,1.58-1.18,3.1-1.23,4.58-.15.39.4.69.79.89,1.18.69,2.27.49,4.88-.59,7.83-.1.49-.4.64-.89.44-.2-.2-.3-.39-.3-.59.69-2.46.94-4.34.74-5.62,0-.98-.4-1.53-1.18-1.63h-.44c-1.28.59-2.02,1.82-2.22,3.7-.2,1.87.54,5.17,2.22,9.9.2.79.39,1.43.59,1.92.2.69.34,1.09.44,1.18.2,0,.34-.05.44-.15.49-.59,1.23-1.48,2.22-2.66,1.18-1.38,2.02-2.37,2.51-2.96,2.56-2.86,4.73-6.01,6.5-9.46.2-4.34.49-7.88.89-10.64-5.03.99-8.48,1.73-10.35,2.22-.3.1-.64.25-1.04.44-.79.2-1.38.3-1.77.3-.79-.39-.89-.98-.3-1.77.3-.2.49-.34.59-.44,2.17-.98,6.55-2.12,13.16-3.4,1.18-6.6,2.27-11.28,3.25-14.04.98-2.07,1.97-3.2,2.96-3.4ZM373.58,106.18c-.1.1-.2.2-.3.3-1.09,1.97-1.73,3.94-1.92,5.91,1.48-1.77,2.37-3.4,2.66-4.88-.2-.89-.35-1.33-.44-1.33Z"/>
          <path class="cls-2" d="M408.32,80.31c.69,0,1.33.15,1.92.44,2.07.79,3.05,2.42,2.96,4.88-.1.49-.2.94-.3,1.33-.99,3.25-3.35,5.37-7.1,6.36-.99.2-1.92.3-2.81.3-.2,1.28-.15,2.56.15,3.84.3,1.87,1.58,2.91,3.84,3.1h.89c3.05-.39,6.45-2.46,10.2-6.21.3-.2.74-.54,1.33-1.04,1.58-1.48,2.86-2.31,3.84-2.51.69-.3,1.18-.1,1.48.59.1.3.1.54,0,.74-.2.1-.89.25-2.07.44h-.59c-.99.59-3.01,2.42-6.06,5.47l-.59.59c-3.45,3.16-6.46,4.93-9.02,5.32-2.46.49-4.49-.44-6.06-2.81-.2-.3-.35-.54-.44-.74-1.77-4.53-1.38-9.26,1.18-14.19,2.17-3.55,4.58-5.52,7.24-5.91ZM409.95,84c-.1.1-.2.15-.3.15-2.76.69-4.88,3.16-6.36,7.39.79-.1,1.28-.15,1.48-.15,3.35-.49,5.47-1.92,6.36-4.29.49-1.38.25-2.37-.74-2.96-.2,0-.35-.05-.44-.15Z"/>
        </g>
        <g>
          <path class="cls-1" d="M181.43,132.08h2.41l8.13,12.11.74,1.12h.01v-13.2l.03-.03h2.18l.03.03v16.88l-.03.03h-2.41c-.42-.59-1.96-2.89-4.62-6.9l-4.28-6.35v13.21l-.02.03h-2.17l-.03-.03v-16.88l.03-.03Z"/>
          <path class="cls-1" d="M207.65,132.08h2.22v16.94h-.01s-2.21.01-2.21.01h-.01v-16.94h.01Z"/>
          <path class="cls-1" d="M229.68,132.08h.02c2.18,0,4.1.85,5.73,2.55.58.66.99,1.24,1.23,1.71-.06.05-.71.41-1.96,1.08-.21-.38-.52-.81-.94-1.31-1.2-1.2-2.55-1.81-4.06-1.81s-2.9.61-4.09,1.83c-1.14,1.29-1.71,2.76-1.71,4.41,0,1.91.73,3.55,2.19,4.9,1.1.9,2.27,1.34,3.51,1.34h.24c1.36,0,2.63-.56,3.81-1.68.5-.56.86-1.04,1.07-1.45l1.96,1.03v.05c-.26.49-.61,1-1.04,1.54-1.68,1.84-3.66,2.76-5.93,2.76s-4.22-.9-5.91-2.71c-1.41-1.71-2.12-3.62-2.12-5.73v-.07c0-2.14.72-4.06,2.15-5.75,1.67-1.79,3.62-2.69,5.85-2.69Z"/>
          <path class="cls-1" d="M255.51,132.08s.36.83,1.01,2.49l5.88,14.45h-.02s-2.42.01-2.42.01c-.03,0-.14-.26-.34-.78l-1.17-2.87h-8.05l-1.47,3.65h-2.4s5.86-14.47,5.86-14.47l1.02-2.48h2.1ZM251.33,143.13h6.21l-3.09-7.64s-.45,1.04-1.27,3.13l-1.84,4.52Z"/>
          <path class="cls-1" d="M273.43,132.08h5.58c1.79,0,3.31.67,4.56,2.01.89,1.08,1.33,2.27,1.33,3.57,0,1.59-.64,2.96-1.91,4.12-.69.56-1.29.91-1.81,1.06,0,.04.76,1.35,2.27,3.93l1.3,2.22-.02.02h-2.63s-.24-.37-.64-1.11c-1.64-2.87-2.51-4.43-2.63-4.67h-3.22v5.75l-.02.03h-2.17l-.03-.03v-16.88l.03-.03ZM275.62,134.33v6.66h3.5c1.11,0,2.07-.46,2.87-1.38.45-.62.67-1.25.67-1.89v-.15c0-1.01-.49-1.88-1.46-2.6-.6-.45-1.44-.67-2.51-.67h-3.03l-.03.03Z"/>
          <path class="cls-1" d="M303.53,132.08s.36.83,1.01,2.49l5.88,14.45h-.02s-2.42.01-2.42.01c-.03,0-.14-.26-.34-.78l-1.17-2.87h-8.05l-1.47,3.65h-2.4s5.86-14.47,5.86-14.47l1.02-2.48h2.1ZM299.35,143.13h6.21l-3.09-7.64s-.45,1.04-1.27,3.13l-1.84,4.52Z"/>
          <path class="cls-1" d="M328.61,132.08h.03c2.15,0,4.05.81,5.7,2.43.59.63,1.03,1.22,1.33,1.77l.13.25c-1.12.59-1.78.93-1.99,1.02-.19-.4-.48-.82-.87-1.26-.48-.5-.84-.82-1.08-.95-1.01-.69-2.08-1.04-3.22-1.04-1.78,0-3.31.76-4.59,2.28-.9,1.22-1.35,2.54-1.35,3.96,0,1.83.69,3.42,2.08,4.76,1.14.99,2.43,1.48,3.86,1.48,1.64,0,3.07-.66,4.3-1.97.73-.86,1.2-1.76,1.41-2.7h-4.26l-.02-.03v-2.17h.01v-.03h4.62s2.1-.01,2.1-.01l.03.03c-.05,1.18-.13,1.96-.22,2.33-.25,1.2-.64,2.18-1.17,2.96-.98,1.56-2.36,2.68-4.13,3.36-.91.32-1.81.47-2.69.47-1.99,0-3.8-.72-5.43-2.15-1.81-1.78-2.71-3.89-2.71-6.31v-.05c0-2.39.9-4.48,2.69-6.28.43-.37.7-.59.81-.65,1.4-1.01,2.95-1.52,4.63-1.52Z"/>
          <path class="cls-1" d="M348.78,132.08h2.17l.02.03v10.32c0,1.24.21,2.16.64,2.76.39.67,1.03,1.16,1.95,1.47.35.08.68.13,1,.13h1.66c1.32,0,2.34-.6,3.07-1.79.33-.64.5-1.39.5-2.25v-10.63l.03-.03h2.18l.03.03v10.05c0,1.34-.12,2.32-.36,2.92-.47,1.34-1.24,2.35-2.32,3.05-.93.6-2.07.9-3.4.9h-1.11c-1.76,0-3.18-.53-4.25-1.59-.47-.47-.83-.94-1.08-1.41-.5-.99-.75-2.04-.75-3.16v-10.76l.04-.03Z"/>
          <path class="cls-1" d="M382.04,132.08s.36.83,1.01,2.49l5.88,14.45h-.02s-2.42.01-2.42.01c-.03,0-.14-.26-.34-.78l-1.17-2.87h-8.05l-1.47,3.65h-2.4s5.86-14.47,5.86-14.47l1.02-2.48h2.1ZM377.86,143.13h6.21l-3.09-7.64s-.45,1.04-1.27,3.13l-1.84,4.52Z"/>
        </g>
      </g>
      <g>
        <path class="cls-3" d="M63.67,121.46s14.15,2.91,26.57-4.77c-2.21-4.15-4.92-8.03-7.76-11.95-4.49-6.19-8.16-12.92-10.92-20.01-.74-1.92-1.43-3.88-2.06-5.87-20.17,19.26-5.83,42.6-5.83,42.6Z"/>
        <path class="cls-3" d="M92.28,114.13c.16.29.3.57.45.86,10.06-7.61,18.18-23.14,15.29-54.32-17.12,4.14-28.56,9.81-36.08,16.03,1.64,5.61,3.79,11.07,6.57,16.27,3.99,7.46,9.73,13.76,13.76,21.17Z"/>
        <path class="cls-2" d="M30.8,117.28c-3.04,6.3-5.3,13.04-5.57,20.04-.23,5.95.55,11.94,5.63,15.8,4.2,3.19,9.73,4.49,14.9,5.2,4.28.58,8.65.73,12.98.67,1.51-8.37,2.88-32.28-27.94-41.71Z"/>
        <path class="cls-2" d="M54.21,161.79c-10.07-.26-23.72-1.67-29.39-11.1-3.62-6.02-2.93-14.38-1.53-20.93.98-4.6,2.65-9.02,4.68-13.28-7.47-1.95-16.66-3.09-27.97-3.08,11.22,70.73,58.07,48.54,58.07,48.54,0,0,.01-.04.03-.1-1.3,0-2.6,0-3.89-.04Z"/>
        <path class="cls-2" d="M66.8,68.25c-1.44-7.63-1.84-15.46-.67-22.97.27-1.71.63-3.4,1.13-5.05.32-1.05.65-2.47,1.42-3.3.64-.69,1.33-1.06,1.59-2.04.26-.96.08-2.08-.57-2.86-.5-.6-1.15-.78-1.9-.84-1.44-.11-2.93,0-4.37,0h-12.05c-.29,0-.61-.03-.9,0-2.09.24-2.87,2.65-1.96,4.35.52.97,1.43,1.47,1.83,2.55.16.44.3.88.43,1.33,2.68,9.04,2.14,18.98.63,28.23,4.55,2.96,8.31,4.3,8.31,4.3,0,0,3.11-1.18,7.06-3.69Z"/>
        <path class="cls-2" d="M48.76,43.35c-.27-1.38-.61-2.75-1.06-4.09-.28-.83-.87-1.08-1.39-1.82-.88-1.26-1.2-2.8-.99-4.3.39-2.72,2.51-4.7,5.32-4.8,1.43-.05,2.86,0,4.29,0,4.17,0,8.35-.05,12.52,0,2.04.02,3.84.73,4.95,2.51.88,1.41,1.11,3.19.68,4.79-.21.78-.58,1.5-1.09,2.13-.34.42-.89.71-1.17,1.09-.65.86-.87,2.5-1.13,3.51-.5,1.97-.84,3.97-1.03,5.99-.58,6-.15,12.08.88,18.02,12.29-9.08,27.47-29.84-10.49-66.37-36.23,36.18-22.51,56.54-10.27,65.78.32-2.26.56-4.53.71-6.8.35-5.2.27-10.5-.74-15.63Z"/>
        <path class="cls-4" d="M48.47,112.17s13.14-16.49.56-33.4c-1.37,5.01-3.13,9.92-5.27,14.69-2.57,5.72-5.89,11.01-9,16.43,7.16,2.83,13.72,2.27,13.72,2.27Z"/>
        <path class="cls-4" d="M44.37,84.12c.92-2.65,1.71-5.35,2.4-8.07-5.37-5.86-14.08-11.67-27.76-16.75-6.88,31.36,2.99,44.2,13.11,49.41.26-.44.51-.88.77-1.31,4.47-7.51,8.62-15.01,11.48-23.27Z"/>
        <path class="cls-4" d="M96.68,124.72c1.23,4.19,1.92,8.53,1.95,12.94-.01,1.71-.04,3.47-.21,5.18-.56,5.58-3.93,10.01-8.79,12.87-4.25,2.51-9.18,3.85-14.03,4.71-2.59.45-5.2.78-7.83,1.01,50.32,20.16,55.25-35.99,55.25-35.99-10.64-1.9-19.29-1.93-26.34-.72Z"/>
        <path class="cls-4" d="M93.85,125.29c-24.17,5.64-27.42,26.8-27.84,33.41,5.31-.35,10.63-1.08,15.71-2.66,3.48-1.09,6.97-2.65,9.65-5.14,4.06-3.78,4.31-8.13,4.35-13.24-.03-4.02-.59-7.99-1.71-11.86-.05-.17-.11-.34-.16-.51Z"/>
      </g>
    </g>
  </g>
</svg>